<svg id="visual" viewBox="0 0 900 600" width="900" height="600" xmlns="http://www.w3.org/2000/svg" xmlns:xlink="http://www.w3.org/1999/xlink" version="1.1"><rect x="0" y="0" width="900" height="600" fill="#FFFFFF"></rect><path d="M0 388L21.5 392.7C43 397.3 86 406.7 128.8 415.5C171.7 424.3 214.3 432.7 257.2 445.2C300 457.7 343 474.3 385.8 480.3C428.7 486.3 471.3 481.7 514.2 480.2C557 478.7 600 480.3 642.8 468C685.7 455.7 728.3 429.3 771.2 421C814 412.7 857 422.3 878.5 427.2L900 432L900 601L878.5 601C857 601 814 601 771.2 601C728.3 601 685.7 601 642.8 601C600 601 557 601 514.2 601C471.3 601 428.7 601 385.8 601C343 601 300 601 257.2 601C214.3 601 171.7 601 128.8 601C86 601 43 601 21.5 601L0 601Z" fill="#4FACF7" stroke-linecap="round" stroke-linejoin="miter"></path></svg>